<svg xmlns="http://www.w3.org/2000/svg" xmlns:xlink="http://www.w3.org/1999/xlink" version="1.1" x="0px" y="0px" viewBox="0 0 95 118.75" enable-background="new 0 0 95 95" xml:space="preserve"><g><path d="M71.071,49.249h8.16v-4.986c0-17.497-14.234-31.731-31.731-31.731c-17.496,0-31.731,14.234-31.731,31.731v4.986h8.159   v-4.986c0-12.997,10.575-23.572,23.572-23.572c12.998,0,23.571,10.575,23.571,23.572V49.249z"/><path d="M6.362,59.351v14.052c0,5.008,2.55,9.066,9.05,9.066h3.189V50.284h-3.189C8.912,50.284,6.362,54.344,6.362,59.351z"/><path d="M22.53,50.284h-2.72v32.185h2.72c1.002,0,1.813-0.812,1.813-1.813V52.098C24.344,51.096,23.532,50.284,22.53,50.284z"/><path d="M79.587,50.284h-3.188v32.185h3.188c6.501,0,9.051-4.059,9.051-9.066V59.351C88.638,54.344,86.088,50.284,79.587,50.284z"/><path d="M70.657,52.098v28.559c0,1.001,0.812,1.813,1.813,1.813h2.719V50.284H72.47C71.469,50.284,70.657,51.096,70.657,52.098z"/></g><text x="0" y="110" fill="#000000" font-size="5px" font-weight="bold" font-family="'Helvetica Neue', Helvetica, Arial-Unicode, Arial, Sans-serif">Created by Guilherme Furtado</text><text x="0" y="115" fill="#000000" font-size="5px" font-weight="bold" font-family="'Helvetica Neue', Helvetica, Arial-Unicode, Arial, Sans-serif">from the Noun Project</text></svg>