<svg xmlns="http://www.w3.org/2000/svg" xmlns:xlink="http://www.w3.org/1999/xlink" version="1.1" x="0px" y="0px" viewBox="0 0 95 118.75" enable-background="new 0 0 95 95" xml:space="preserve"><g><g><g><path d="M42.927,58.935c-1.776,0-3.018-1.406-3.018-3.419v-8.164c0-2.012,1.241-3.417,3.018-3.417     c0.562,0,1.143,0.142,1.728,0.419l9.682,4.6c1.688,0.803,1.939,1.898,1.939,2.48s-0.252,1.678-1.938,2.48l-9.682,4.602     C44.069,58.793,43.488,58.935,42.927,58.935z M42.927,45.935c-0.918,0-1.018,0.991-1.018,1.417v8.164     c0,0.427,0.1,1.419,1.018,1.419c0.259,0,0.56-0.078,0.87-0.226l9.681-4.602c0.603-0.286,0.798-0.578,0.798-0.674     s-0.195-0.388-0.798-0.674l-9.681-4.6C43.486,46.013,43.186,45.935,42.927,45.935z"/></g><g><g><path d="M58.235,68.283H37.144c-3.476,0-6.303-2.828-6.303-6.304V40.888c0-3.475,2.827-6.302,6.303-6.302h21.092      c3.476,0,6.303,2.827,6.303,6.302v21.092C64.538,65.455,61.711,68.283,58.235,68.283z M37.144,36.586      c-2.372,0-4.303,1.93-4.303,4.302v21.092c0,2.373,1.931,4.304,4.303,4.304h21.092c2.372,0,4.303-1.931,4.303-4.304V40.888      c0-2.372-1.931-4.302-4.303-4.302H37.144z M58.235,64.749H37.144c-1.526,0-2.768-1.242-2.768-2.77V40.888      c0-1.526,1.241-2.768,2.768-2.768h21.092c1.526,0,2.768,1.241,2.768,2.768v21.092C61.003,63.507,59.762,64.749,58.235,64.749z       M37.144,40.12c-0.423,0-0.768,0.345-0.768,0.768v21.092c0,0.425,0.345,0.77,0.768,0.77h21.092c0.423,0,0.768-0.345,0.768-0.77      V40.888c0-0.423-0.345-0.768-0.768-0.768H37.144z"/></g></g></g><g><path d="M79.478,84.623H15.521c-4.958,0-8.992-4.035-8.992-8.995V19.371c0-4.959,4.034-8.994,8.992-8.994h63.957    c4.959,0,8.994,4.035,8.994,8.994v56.257C88.472,80.588,84.437,84.623,79.478,84.623z M15.521,12.377    c-3.855,0-6.992,3.138-6.992,6.994v56.257c0,3.857,3.137,6.995,6.992,6.995h63.957c3.856,0,6.994-3.138,6.994-6.995V19.371    c0-3.856-3.138-6.994-6.994-6.994H15.521z M79.478,77.518H15.521c-1.04,0-1.887-0.848-1.887-1.89V25.995h67.73v49.633    C81.364,76.67,80.518,77.518,79.478,77.518z M15.634,75.518h63.73V27.995h-63.73V75.518z M76.259,24.442    c-2.816,0-5.107-2.292-5.107-5.109c0-2.816,2.291-5.107,5.107-5.107c2.815,0,5.105,2.291,5.105,5.107    C81.364,22.15,79.074,24.442,76.259,24.442z M76.259,16.226c-1.714,0-3.107,1.394-3.107,3.107c0,1.715,1.394,3.109,3.107,3.109    c1.712,0,3.105-1.395,3.105-3.109C79.364,17.619,77.971,16.226,76.259,16.226z M65.155,24.442c-2.816,0-5.107-2.292-5.107-5.109    c0-2.816,2.291-5.107,5.107-5.107s5.107,2.291,5.107,5.107C70.263,22.15,67.972,24.442,65.155,24.442z M65.155,16.226    c-1.714,0-3.107,1.394-3.107,3.107c0,1.715,1.394,3.109,3.107,3.109s3.107-1.395,3.107-3.109    C68.263,17.619,66.869,16.226,65.155,16.226z M54.052,24.442c-2.817,0-5.109-2.292-5.109-5.109c0-2.816,2.292-5.107,5.109-5.107    c2.816,0,5.107,2.291,5.107,5.107C59.159,22.15,56.868,24.442,54.052,24.442z M54.052,16.226c-1.715,0-3.109,1.394-3.109,3.107    c0,1.715,1.395,3.109,3.109,3.109c1.714,0,3.107-1.395,3.107-3.109C57.159,17.619,55.766,16.226,54.052,16.226z"/></g></g><text x="0" y="110" fill="#000000" font-size="5px" font-weight="bold" font-family="'Helvetica Neue', Helvetica, Arial-Unicode, Arial, Sans-serif">Created by Guilherme Furtado</text><text x="0" y="115" fill="#000000" font-size="5px" font-weight="bold" font-family="'Helvetica Neue', Helvetica, Arial-Unicode, Arial, Sans-serif">from the Noun Project</text></svg>