<svg xmlns="http://www.w3.org/2000/svg" version="1.1" viewBox="-5.0 -10.0 110.0 135.0">
 <path d="m53.473 50c0-1.8945-1.5781-3.4727-3.4727-3.4727s-3.4727 1.5781-3.4727 3.4727 1.5781 3.4727 3.4727 3.4727 3.4727-1.5781 3.4727-3.4727z"/>
 <path d="m75.473 44.527-6.6328 6.6328 1.6836 1.6836-2.4219 2.5273c-0.63281 0.63281-0.63281 1.5781 0 2.2109 0.31641 0.31641 0.73828 0.42188 1.0508 0.42188 0.42188 0 0.84375-0.21094 1.1562-0.52734l2.4219-2.5273 1.2617 1.2617 6.6328-6.6328-1.3633-1.1562 5.1562-5.2617c0.31641-0.31641 0.42188-0.73828 0.42188-1.0508l0.003906-33.16c0-0.84375-0.73828-1.5781-1.5781-1.5781-0.84375 0-1.5781 0.73828-1.5781 1.5781v32.527l-4.6328 4.7383z"/>
 <path d="m86.949 30.316v11.789c0 0.94922-0.42188 1.8945-1.0508 2.5273l-3.6875 3.7891 1.3672 1.3672-9.5781 9.5781-1.2617-1.2617-0.94922 0.94922c-0.73828 0.73828-1.6836 1.1562-2.6328 1.1562s-1.8945-0.42188-2.5273-1.0508c-1.4727-1.3672-1.4727-3.7891-0.10547-5.1562l1.0508-1.0508-1.6836-1.6836 9.5781-9.5781 1.5781 1.5781 2.5273-2.6328 0.003906-20.215c-7.5781-7.5781-18-12.211-29.578-12.211-23.051 0-41.789 18.738-41.789 41.789s18.738 41.789 41.789 41.789 41.789-18.738 41.789-41.789c0-7.0508-1.7891-13.789-4.8398-19.684zm-18.949 35.895c0.73828 0.73828 0.63281 1.8945-0.10547 2.6328-4.6328 4.4219-10.844 6.9492-17.262 7.1562-0.94922 0-1.7891-0.84375-1.8945-1.7891 0-1.0508 0.73828-1.8945 1.7891-1.8945 5.5781-0.10547 10.844-2.3164 14.844-6.1055 0.73438-0.73828 1.8906-0.73828 2.6289 0zm-39.895-37.16c-0.52734 0-0.94922-0.21094-1.3672-0.52734-0.73828-0.73828-0.63281-1.8945 0-2.6328 6.1055-5.8945 14.105-9.1562 22.527-9.3672 1.0508-0.10547 1.8945 0.84375 1.8945 1.7891 0 1.0508-0.84375 1.8945-1.7891 1.8945-7.4727 0.10547-14.633 3.0508-20 8.3164-0.32031 0.42578-0.84375 0.52734-1.2656 0.52734zm5.2617 5.2656c-0.52734 0-0.94922-0.21094-1.3672-0.52734-0.73828-0.73828-0.63281-1.8945 0.10547-2.6328 4.6328-4.4219 10.844-6.9492 17.262-7.1562 0.94922-0.10547 1.8945 0.73828 1.8945 1.7891 0 1.0508-0.73828 1.8945-1.7891 1.8945-5.5781 0.10547-10.844 2.3164-14.844 6.1055-0.3125 0.31641-0.83984 0.52734-1.2617 0.52734zm3.7891 15.684c0-7.0508 5.7891-12.844 12.844-12.844 7.0508 0 12.844 5.7891 12.844 12.844 0 7.0508-5.7891 12.844-12.844 12.844-7.0508 0-12.844-5.793-12.844-12.844zm36 24.105c-6.1055 5.8945-14.105 9.1562-22.527 9.3672-1.0508 0-1.7891-0.84375-1.8945-1.7891 0-1.0508 0.84375-1.8945 1.7891-1.8945 7.4727-0.10547 14.633-3.0508 20-8.3164 0.73828-0.73828 1.8945-0.63281 2.6328 0 0.73828 0.73828 0.73828 1.8945 0 2.6328z"/>
<text x="0.0" y="117.5" font-size="5.0" font-weight="bold" font-family="Arbeit Regular, Helvetica, Arial-Unicode, Arial, Sans-serif" fill="#000000">Created by Guilherme Furtado</text><text x="0.0" y="122.5" font-size="5.0" font-weight="bold" font-family="Arbeit Regular, Helvetica, Arial-Unicode, Arial, Sans-serif" fill="#000000">from Noun Project</text></svg>